<?xml version="1.0" encoding="UTF-8" standalone="no"?>
<!-- Created with Inkscape (http://www.inkscape.org/) -->
<svg width="300" height="300" viewBox="0 0 731.28998 731.28998" xmlns:xlink="http://www.w3.org/1999/xlink" xmlns="http://www.w3.org/2000/svg"><link xmlns="" type="text/css" id="dark-mode" rel="stylesheet" href=""/><style xmlns="" type="text/css" id="dark-mode-custom-style"/>
  <defs id="defs1">
    <linearGradient id="linearGradient29">
      <stop style="stop-color:#67cd53;stop-opacity:1;" offset="0" id="stop29"/>
      <stop style="stop-color:#0f6d0e;stop-opacity:1;" offset="1" id="stop30"/>
    </linearGradient>
    <rect x="1247.066" y="-1088.5905" width="1492.6588" height="826.82928" id="rect3"/>
    <rect x="1265.7913" y="-531.59375" width="1111.2892" height="92.330826" id="rect2"/>
    <rect x="1432.3754" y="592.3562" width="1140.8921" height="362.93167" id="rect11"/>
    <linearGradient id="linearGradient7">
      <stop style="stop-color:#d4653f;stop-opacity:1;" offset="0" id="stop7"/>
      <stop style="stop-color:#f4854d;stop-opacity:1;" offset="1" id="stop8"/>
    </linearGradient>
    <linearGradient id="linearGradient3">
      <stop style="stop-color:#eee1b3;stop-opacity:0;" offset="0" id="stop3"/>
      <stop style="stop-color:#eee1b3;stop-opacity:1;" offset="1" id="stop4"/>
    </linearGradient>
    <radialGradient xlink:href="#linearGradient3" id="radialGradient4-6" cx="1429.9344" cy="363.39203" fx="1429.9344" fy="363.39203" r="283.70511" gradientUnits="userSpaceOnUse" gradientTransform="matrix(1.0076229,0,0,1.0076229,-928.83473,-749.66213)"/>
    <linearGradient xlink:href="#linearGradient7" id="linearGradient10" gradientUnits="userSpaceOnUse" gradientTransform="translate(-917.93444,-746.89203)" x1="1222.9139" y1="550.27283" x2="1636.9681" y2="176.51122"/>
    <linearGradient xlink:href="#linearGradient29" id="linearGradient30" x1="395.43945" y1="-583.20898" x2="578.87891" y2="-279.49805" gradientUnits="userSpaceOnUse"/>
  </defs>
  <g id="g1" transform="translate(0,-35.71)">
    <text xml:space="preserve" id="text2" style="font-size:64px;line-height:10.2;font-family:'Times New Roman';-inkscape-font-specification:'Times New Roman, ';text-align:center;letter-spacing:0px;white-space:pre;shape-inside:url(#rect2);display:inline;fill:#535353;stroke:#ff0000;stroke-width:2.5;stroke-linejoin:round;paint-order:stroke fill markers" x="-89.453125" y="0"><tspan x="1265.791" y="-96.055944" id="tspan3"><tspan dx="0 32 17.78125 32 17.78125 32 17.78125" style="text-align:start;text-anchor:start;fill:#000000;stroke:none" id="tspan1">oininin</tspan></tspan></text>
    <g id="g30" transform="translate(-146.35516,784.85519)">
      <path id="path1-2-1" style="fill:#f9f9f9;stroke:#000000;stroke-width:3" d="M 876.14478,-383.5 A 364.14481,364.14481 0 0 1 511.99997,-19.355194 364.14481,364.14481 0 0 1 147.85516,-383.5 364.14481,364.14481 0 0 1 511.99997,-747.64481 364.14481,364.14481 0 0 1 876.14478,-383.5 Z"/>
      <path id="path1-1-3-5" style="fill:url(#radialGradient4-6);stroke:#000000;stroke-width:3" d="M 795.39804,-383.5 A 283.39807,283.39807 0 0 1 511.99997,-100.10193 283.39807,283.39807 0 0 1 228.6019,-383.5 283.39807,283.39807 0 0 1 511.99997,-666.89807 283.39807,283.39807 0 0 1 795.39804,-383.5 Z"/>
      <path style="fill:url(#linearGradient10);fill-opacity:1;stroke:#000000;stroke-width:2;stroke-linejoin:round;stroke-dasharray:none;stroke-opacity:1;paint-order:stroke fill markers" d="m 315.7711,-216.94249 194.7219,3.60934 0.5116,-50.14187 1.0233,-5.62817 -0.6822,-13.98515 -1.3644,-4.94597 v -9.55083 l 1.7055,-3.24046 v -4.26377 c 0.3747,-0.36776 19.5462,-17.96372 22.5127,-18.07836 1.5825,-0.0611 2.946,2.24656 4.4343,1.7055 8.8927,-3.23274 23.536,-9.55083 23.536,-9.55083 v -142.06865 h 156.8639 v -97.29911 h -205.215 l -6.7197,5.33369 -2.6532,5.12539 -1.6883,8.44182 -2.6532,4.70331 -1.0854,1.26627 -0.3617,3.43703 -1.5678,1.32657 v 3.73852 l -2.5326,2.05016 v 8.32123 l -6.6931,10.79347 -2.5269,6.008 c 0,0 -8.2124,6.09525 -12.0171,9.29362 -3.33,2.79932 -9.387,8.69947 -9.387,8.69947 h -9.5509 l -14.2409,13.47349 v 11.85327 l -10.0625,11.00051 v 11.17107 l -7.7601,13.38822 -0.2558,24.04763 c 0,0 -1.6614,3.39903 -2.3355,5.16381 -0.908,2.37734 -2.2923,7.28228 -2.2923,7.28228 l -10.2101,9.38439 -1.8761,0.51165 -26.947,28.56723 h -2.6435 c 0,0 -4.8544,3.4154 -6.9926,5.45762 -2.0846,1.99109 -5.6281,5.55272 -5.6281,8.43545 v 5.63497 h 4.7754 l 5.7987,-8.69808 -5.7987,8.69808 -14.8379,25.07094 v 3.92266 c 0,0 -1.8597,1.00206 -1.8334,1.87606 0.031,1.03588 1.9598,1.11116 2.3024,2.08924 0.2085,0.59522 0.075,1.21528 -0.3015,1.86786 -2.6231,3.04585 -7.5028,3.75557 -7.5028,6.54517 v 5.92663 c 0,1.811 -1.4113,2.70065 -1.7646,4.16716 -0.4329,1.79726 0.052,5.68232 0.052,5.68232 0,0 -3.0494,1.76129 -3.8238,3.45247 -0.4937,1.07823 -0.8527,3.60027 -0.8527,3.60027 l -6.2851,8.53785 c 0,0 -6.4713,-0.66681 -7.5209,1.15121 -4.0716,7.05218 -12.7196,20.08354 -12.7196,20.08354 v 13.1324 l -1.7908,2.72881 v 3.75211 c 0,0 -1.1955,1.46556 -1.6202,2.30243 -0.964,1.89976 -1.7647,3.94292 -2.0466,6.05455 -0.1244,0.93148 0.3078,1.88441 0.1705,2.81408 -0.2877,1.94843 -1.6483,3.61403 -2.0466,5.5429 -0.6447,3.12232 -0.5116,9.55083 -0.5116,9.55083 0,0 2.0128,-0.0702 2.8141,-0.59693 1.6015,-1.05273 2.6303,-2.9042 3.3257,-4.69014 0.9044,-2.32283 0.938,-7.41895 0.938,-7.41895 z" id="path4-1-7-5"/>
      <path style="fill:none;fill-opacity:1;stroke:#000000;stroke-width:2;stroke-linejoin:round;stroke-dasharray:none;stroke-opacity:1;paint-order:stroke fill markers" d="m 315.7711,-216.94249 194.7219,3.60934 0.5116,-50.14187 1.0233,-5.62817 -0.6822,-13.98515 -1.3644,-4.94597 v -9.55083 l 1.7055,-3.24046 v -4.26377 c 0.3747,-0.36776 19.5462,-17.96372 22.5127,-18.07836 1.5825,-0.0611 2.946,2.24656 4.4343,1.7055 8.8927,-3.23274 23.536,-9.55083 23.536,-9.55083 v -142.06865 h 156.8639 v -97.29911 h -205.215 l -6.7197,5.33369 -2.6532,5.12539 -1.6883,8.44182 -2.6532,4.70331 -1.0854,1.26627 -0.3617,3.43703 -1.5678,1.32657 v 3.73852 l -2.5326,2.05016 v 8.32123 l -6.6931,10.79347 -2.5269,6.008 c 0,0 -8.2124,6.09525 -12.0171,9.29362 -3.33,2.79932 -9.387,8.69947 -9.387,8.69947 h -9.5509 l -14.2409,13.47349 v 11.85327 l -10.0625,11.00051 v 11.17107 l -7.7601,13.38822 -0.2558,24.04763 c 0,0 -1.6614,3.39903 -2.3355,5.16381 -0.908,2.37734 -2.2923,7.28228 -2.2923,7.28228 l -10.2101,9.38439 -1.8761,0.51165 -26.947,28.56723 h -2.6435 c 0,0 -4.8544,3.4154 -6.9926,5.45762 -2.0846,1.99109 -5.6281,5.55272 -5.6281,8.43545 v 5.63497 h 4.7754 l 5.7987,-8.69808 -5.7987,8.69808 -14.8379,25.07094 v 3.92266 c 0,0 -1.8597,1.00206 -1.8334,1.87606 0.031,1.03588 1.9598,1.11116 2.3024,2.08924 0.2085,0.59522 0.075,1.21528 -0.3015,1.86786 -2.6231,3.04585 -7.5028,3.75557 -7.5028,6.54517 v 5.92663 c 0,1.811 -1.4113,2.70065 -1.7646,4.16716 -0.4329,1.79726 0.052,5.68232 0.052,5.68232 0,0 -3.0494,1.76129 -3.8238,3.45247 -0.4937,1.07823 -0.8527,3.60027 -0.8527,3.60027 l -6.2851,8.53785 c 0,0 -6.4713,-0.66681 -7.5209,1.15121 -4.0716,7.05218 -12.7196,20.08354 -12.7196,20.08354 v 13.1324 l -1.7908,2.72881 v 3.75211 c 0,0 -1.1955,1.46556 -1.6202,2.30243 -0.964,1.89976 -1.7647,3.94292 -2.0466,6.05455 -0.1244,0.93148 0.3078,1.88441 0.1705,2.81408 -0.2877,1.94843 -1.6483,3.61403 -2.0466,5.5429 -0.6447,3.12232 -0.5116,9.55083 -0.5116,9.55083 0,0 2.0128,-0.0702 2.8141,-0.59693 1.6015,-1.05273 2.6303,-2.9042 3.3257,-4.69014 0.9044,-2.32283 0.938,-7.41895 0.938,-7.41895 z" id="path4-1-6"/>
      <path style="font-size:64px;font-family:'Times New Roman';-inkscape-font-specification:'Times New Roman, ';text-align:center;letter-spacing:5px;text-anchor:middle;white-space:pre;fill:#000000;fill-opacity:1;stroke-linejoin:round;paint-order:stroke fill markers" d="m 260.4666,-199.72059 -12.7725,10.6909 4.9543,5.9189 q 1.705,2.0369 3.3739,2.2293 1.7129,0.1964 4.6336,-1.7185 l 0.7421,0.8866 -10.9991,9.2066 -0.7422,-0.8866 q 1.8731,-1.6086 2.3586,-2.83 0.5055,-1.1974 0.2348,-2.3972 -0.2267,-1.1959 -1.5906,-2.8254 l -4.9543,-5.9189 -10.2084,8.5447 q -2.4682,2.066 -2.9983,3.0394 -0.3985,0.7411 -0.1879,1.869 0.3074,1.5357 1.2702,2.686 l 0.9828,1.1742 -0.8866,0.7421 -11.6738,-13.9466 0.8867,-0.7422 0.9628,1.1503 q 1.6848,2.0129 3.6212,1.9407 1.2482,-0.067 4.1718,-2.5139 l 20.9918,-17.5707 q 2.4683,-2.066 2.9983,-3.0394 0.3985,-0.7411 0.208,-1.845 -0.2873,-1.5119 -1.2702,-2.6861 l -0.9628,-1.1502 0.8867,-0.7421 20.2385,24.1789 -6.8803,6.2888 -0.7021,-0.8387 q 1.755,-2.5285 2.1074,-4.2498 0.3964,-1.7174 -0.1473,-3.3406 -0.5236,-1.5994 -2.6498,-4.1395 z m 18.5983,76.3461 -8.2566,-7.733 3.0744,-24.2657 q -1.206,-1.0439 -1.9358,-1.7275 -0.2965,-0.2777 -0.6387,-0.5981 -0.3207,-0.3433 -0.6643,-0.7079 l -8.4167,8.9866 q -2.7343,2.9195 -2.7579,4.2247 -0.073,1.8153 1.6603,3.4388 l 1.2088,1.1322 -0.7904,0.8439 -13.2517,-12.4113 0.7904,-0.8439 1.1632,1.0894 q 1.9615,1.8372 4.0017,1.3503 1.1412,-0.2585 3.6192,-2.9043 l 18.7132,-19.9802 q 2.7343,-2.9195 2.7579,-4.2247 0.05,-1.8367 -1.7059,-3.4815 l -1.1632,-1.0895 0.7904,-0.8439 11.2674,10.5528 q 4.9266,4.6142 6.5695,7.523 1.687,2.9074 1.4907,6.3628 -0.1522,3.454 -2.6516,6.1226 -2.6702,2.851 -6.5058,3.1977 -3.8128,0.3681 -8.5248,-2.4181 l -1.9235,14.8539 q -0.6729,5.107 -0.039,7.5846 0.6339,2.4775 2.9093,5.1224 z m -7.0752,-36.4691 q 0.4334,0.4059 0.7313,0.7278 0.3193,0.299 0.5246,0.4913 4.4249,4.1442 8.4545,4.3218 4.0524,0.1989 6.8295,-2.7662 2.713,-2.8967 2.5759,-6.4075 -0.093,-3.5123 -3.0808,-6.3107 -1.3229,-1.239 -3.9868,-2.9205 z m 44.961,14.6039 -9.8226,13.5676 7.5431,5.4611 q 2.9363,2.1258 4.5649,1.9545 2.1592,-0.2114 4.4369,-3.0377 l 0.9366,0.678 -8.6498,11.9476 -0.9366,-0.6781 q 1.4599,-2.7625 1.6186,-3.7278 0.1858,-1.2158 -0.4855,-2.4734 -0.6713,-1.2576 -2.8229,-2.8153 l -7.5431,-5.4611 -8.1916,11.3147 q -1.6494,2.2782 -1.8134,2.931 -0.1457,0.6276 0.1407,1.2978 0.3046,0.645 1.7222,1.6712 l 5.8219,4.215 q 2.9109,2.1074 4.5204,2.6554 1.6094,0.5479 3.6858,0.2379 2.7055,-0.4332 6.6416,-2.4061 l 1.0125,0.733 -9.1924,6.4622 -26.4516,-19.1505 0.678,-0.9365 1.215,0.8796 q 1.215,0.8796 2.725,1.0854 1.1032,0.1815 1.968,-0.4269 0.8902,-0.5901 2.7045,-3.0961 l 16.145,-22.3004 q 2.364,-3.2653 2.2557,-4.5012 -0.1782,-1.6722 -2.3045,-3.2116 l -1.215,-0.8796 0.678,-0.9366 26.4517,19.1505 -5.0631,7.7927 -0.9871,-0.7147 q 1.4292,-3.0933 1.5042,-4.5823 0.1002,-1.4706 -0.7806,-2.9185 -0.7376,-1.1127 -3.2942,-2.9636 z m 20.9124,12.7473 10.1155,5.4706 7.6687,40.2787 11.6251,-21.4954 q 1.8582,-3.4359 1.5494,-4.7043 -0.3927,-1.7045 -2.5917,-2.8938 l -1.2919,-0.6986 0.55,-1.0171 12.9742,7.0167 -0.5501,1.017 -1.3194,-0.7135 q -2.3639,-1.2785 -4.1265,-0.3843 -1.0804,0.5525 -2.7751,3.6861 l -16.9916,31.4184 -0.9896,-0.5352 -8.3405,-43.3065 -12.4129,22.9522 q -1.8582,3.436 -1.5769,4.6894 0.4202,1.7194 2.5917,2.8938 l 1.3194,0.7136 -0.55,1.017 -12.9742,-7.0166 0.55,-1.0171 1.2919,0.6987 q 2.3915,1.2933 4.154,0.3992 1.0805,-0.5526 2.7752,-3.6862 l 14.0184,-25.9208 q -0.596,-2.7738 -1.1212,-3.8393 -0.4975,-1.0507 -1.8369,-2.4501 -0.6632,-0.6785 -2.2851,-1.5556 z m 75.6468,35.1888 -3.1083,9.4506 -1.1093,-0.4238 q 0.6156,-2.5749 0.4623,-3.8377 -0.2581,-2.0388 -1.4751,-3.4069 -1.1765,-1.3861 -3.6287,-2.3229 l -5.5758,-2.1299 -11.553,30.2435 q -1.3939,3.6491 -0.9514,4.8551 0.6409,1.6499 2.9471,2.5308 l 1.3721,0.5242 -0.4126,1.0801 -16.7858,-6.4122 0.4127,-1.0801 1.4012,0.5353 q 2.5106,0.959 4.1414,-0.1575 0.9991,-0.6889 2.2703,-4.0168 l 11.553,-30.2435 -4.7584,-1.8177 q -2.7733,-1.0594 -4.0971,-1.0968 -1.7299,-0.025 -3.4122,1.1386 -1.6823,1.1638 -2.9126,3.7715 l -1.1093,-0.4238 4.0133,-9.1048 z m 14.2689,6.184 -4.0434,16.2547 9.0371,2.248 q 3.5178,0.875 4.9645,0.1078 1.924,-1.0027 2.981,-4.4752 l 1.122,0.2791 -3.5605,14.3138 -1.1221,-0.2791 q 0.3223,-3.1079 0.1089,-4.0626 -0.2818,-1.1972 -1.3743,-2.113 -1.0925,-0.9158 -3.6702,-1.557 l -9.0371,-2.248 -3.372,13.5556 q -0.6789,2.7293 -0.5872,3.3962 0.099,0.6366 0.6153,1.1513 0.5235,0.4845 2.2218,0.9069 l 6.9749,1.7351 q 3.4875,0.8675 5.1851,0.7745 1.6977,-0.093 3.5079,-1.1561 2.3479,-1.4125 5.262,-4.7129 l 1.213,0.3017 -6.113,9.4282 -31.6904,-7.8831 0.2791,-1.122 1.4556,0.3621 q 1.4557,0.3621 2.9331,-0.011 1.0912,-0.2438 1.6661,-1.1312 0.6053,-0.8799 1.3521,-3.8822 l 6.6459,-26.7171 q 0.9732,-3.912 0.411,-5.0179 -0.7899,-1.4846 -3.3373,-2.1183 l -1.4556,-0.3621 0.2791,-1.122 31.6904,7.8831 -1.7855,9.1199 -1.1828,-0.2942 q 0.1704,-3.4033 -0.3163,-4.8125 -0.4564,-1.4016 -1.8142,-2.4156 -1.0999,-0.7566 -4.1629,-1.5185 z m 55.531,30.1269 -0.8615,12.3137 q -0.2792,3.9902 0.5261,5.0177 1.0886,1.4545 3.489,1.6225 l 1.621,0.1134 -0.081,1.1534 -18.112,-1.2672 0.081,-1.1534 1.5899,0.1112 q 2.6809,0.1876 3.9565,-1.4774 0.6911,-0.9228 0.9441,-4.539 l 1.9106,-27.3082 q 0.2792,-3.9903 -0.4949,-5.0155 -1.1198,-1.4567 -3.5202,-1.6247 l -1.5899,-0.1112 0.081,-1.1534 15.4934,1.0839 q 5.6736,0.397 8.864,1.8106 3.1925,1.3824 5.2429,4.3139 2.0504,2.9315 1.7844,6.7347 -0.3621,5.1749 -4.018,8.1771 -3.6248,3.0043 -9.8596,2.5681 -1.5275,-0.1069 -3.2891,-0.4494 -1.7617,-0.3426 -3.7574,-0.9208 z m 0.1243,-1.7769 q 1.6304,0.4274 2.8976,0.6727 1.2672,0.2453 2.1713,0.3085 3.2421,0.2268 5.7546,-2.1035 2.5458,-2.3593 2.825,-6.3496 0.1919,-2.7433 -0.7667,-5.1598 -0.9565,-2.4477 -2.9333,-3.7451 -1.9746,-1.3286 -4.5932,-1.5118 -1.5899,-0.1112 -4.1252,0.3066 z m 46.8873,-21.0809 q 8.237,-0.4635 14.6116,5.4689 6.4041,5.8995 6.9309,15.2597 0.5425,9.641 -5.1834,16.3483 -5.7259,6.7074 -14.3685,7.1937 -8.7362,0.4917 -15.0449,-5.3819 -6.2776,-5.8753 -6.8324,-15.7347 -0.5671,-10.0778 5.9388,-16.829 5.6485,-5.8579 13.9479,-6.325 z m -0.4646,2.311 q -5.6786,0.3196 -8.8736,4.7248 -3.9795,5.4823 -3.4106,15.5913 0.583,10.3586 5.3277,15.6942 3.6397,4.0519 9.2246,3.7376 5.9593,-0.3354 9.5666,-5.202 3.6385,-4.8684 3.0748,-14.8838 -0.611,-10.8578 -5.1857,-15.9525 -3.6709,-4.0502 -9.7238,-3.7096 z m 64.5357,20.4995 1.054,0.023 -1.4228,11.9735 -32.2399,6.1031 -0.2151,-1.136 1.566,-0.2965 q 2.6406,-0.4998 3.4512,-2.4344 0.4588,-1.1046 -0.2155,-4.6663 l -5.0859,-26.8666 q -0.7382,-3.8995 -1.7839,-4.7193 -1.4533,-1.1243 -3.8175,-0.6768 l -1.566,0.2965 -0.215,-1.1361 18.8527,-3.5689 0.215,1.1361 q -3.3219,0.597 -4.5508,1.4976 -1.1983,0.8947 -1.5036,1.9703 -0.3052,1.0755 0.3981,4.7908 l 4.9522,26.1604 q 0.4824,2.5485 1.1539,3.4073 0.4905,0.5751 1.3163,0.7368 0.8257,0.1617 4.848,-0.5997 l 3.0398,-0.5754 q 4.7899,-0.9068 6.5906,-1.9792 1.8007,-1.0724 3.0603,-3.1555 1.2537,-2.1138 2.1179,-6.2848 z m 27.9633,2.8383 0.3236,1.11 -17.4301,5.0832 -0.3236,-1.11 1.44,-0.42 q 2.52,-0.7349 3.2313,-2.5374 0.44,-1.1699 -0.6274,-4.83 l -7.6642,-26.2802 q -0.9012,-3.0901 -1.5798,-3.9663 -0.5188,-0.6625 -1.6062,-0.9313 -1.53,-0.3351 -2.97,0.085 l -1.4401,0.4199 -0.3236,-1.11 17.4301,-5.0832 0.3237,1.11 -1.47,0.4287 q -2.4901,0.7262 -3.2013,2.5287 -0.47,1.1787 0.5972,4.8388 l 7.6642,26.2802 q 0.9012,3.09 1.5799,3.9663 0.5187,0.6625 1.6362,0.9226 1.5,0.3438 2.94,-0.076 z m 18.0746,-51.7285 5.3768,13.6343 -1.0757,0.4242 q -2.0709,-3.7182 -4.3544,-5.5051 -2.2545,-1.7983 -5.2934,-2.1787 -3.0389,-0.3805 -5.7135,0.6743 -3.0234,1.1923 -4.2665,3.8324 -1.2546,2.611 -0.326,4.9658 0.7108,1.8024 2.5455,2.7921 2.6623,1.4695 10.8689,2.4322 6.6929,0.7871 9.3293,1.5949 2.6541,0.7674 4.5781,2.4945 1.953,1.7156 2.8817,4.0703 1.7655,4.477 -0.4391,9.1087 -2.1869,4.5911 -7.6523,6.7464 -1.7152,0.6764 -3.33,1.0109 -0.9586,0.2101 -4.1629,0.4324 -3.1868,0.1817 -3.9427,0.4798 -0.7267,0.2866 -0.9908,0.8946 -0.2351,0.5966 0.1003,2.0432 l -1.0757,0.4242 -5.3309,-13.5181 1.0756,-0.4242 q 2.4297,3.9463 4.5457,5.5641 2.1046,1.5887 5.2713,1.9523 3.1957,0.3522 6.3354,-0.886 3.6339,-1.433 4.9704,-4.1771 1.3655,-2.7556 0.3337,-5.372 -0.5732,-1.4536 -1.9718,-2.6152 -1.3696,-1.1731 -3.5602,-1.7873 -1.4777,-0.425 -7.6481,-1.2501 -6.1819,-0.8542 -8.9981,-1.692 -2.7871,-0.8492 -4.6943,-2.4486 -1.9072,-1.5993 -2.8703,-4.0413 -1.6737,-4.2443 0.3785,-8.5808 2.0407,-4.3656 7.07,-6.3489 3.1397,-1.2381 7.2649,-1.0846 1.9146,0.085 2.5833,-0.1789 0.7558,-0.298 1.049,-0.9175 0.3108,-0.6601 0.063,-2.1411 z m 45.28,9.6655 -14.3844,7.89 0.6954,7.246 q 0.2557,2.6755 0.8418,3.744 0.4658,0.8494 1.6211,1.0712 1.1676,0.1793 3.9579,-1.1017 l 0.5561,1.0137 -11.6994,6.4172 -0.556,-1.0137 q 2.1035,-1.6884 2.4278,-2.7217 0.6759,-2.0816 0.1655,-7.0411 l -3.7026,-37.7459 0.959,-0.526 29.8845,23.8126 q 3.6057,2.8697 5.4822,3.3017 1.8888,0.3896 4.2381,-0.7207 l 0.5561,1.0137 -14.6585,8.0403 -0.556,-1.0138 q 2.1592,-1.3269 2.5806,-2.3778 0.449,-1.0661 -0.047,-1.9702 -0.6613,-1.2056 -3.1848,-3.2073 z m -1.8793,-1.6067 -14.5374,-11.5581 1.7694,18.5614 z m 62.5078,-22.6737 -9.0905,6.7331 -23.3187,-7.3838 q -1.2435,0.9988 -2.0471,1.594 -0.3264,0.2418 -0.7031,0.5208 -0.3952,0.2539 -0.8157,0.5264 l 7.3283,9.8941 q 2.3808,3.2143 3.6605,3.472 1.7726,0.3982 3.6812,-1.0154 l 1.3309,-0.9858 0.6882,0.9291 -14.5901,10.8065 -0.6882,-0.9292 1.2807,-0.9486 q 2.1597,-1.5995 2.0472,-3.694 -0.049,-1.1691 -2.2068,-4.0821 l -16.2933,-21.9981 q -2.3808,-3.2143 -3.6605,-3.472 -1.7978,-0.3796 -3.7314,1.0526 l -1.2807,0.9486 -0.6882,-0.9291 12.4053,-9.1883 q 5.4242,-4.0175 8.5809,-5.1111 3.1631,-1.1373 6.527,-0.3234 3.3705,0.7703 5.5466,3.7084 2.325,3.139 1.977,6.9745 -0.3229,3.8168 -3.9103,7.9517 l 14.2666,4.5606 q 4.9032,1.5795 7.4543,1.401 2.5511,-0.1784 5.5617,-1.9417 z m -37.1468,0.4084 q 0.4772,-0.3534 0.8472,-0.5887 0.3516,-0.2604 0.5776,-0.4278 4.8718,-3.6083 5.7705,-7.5405 0.9237,-3.9508 -1.4943,-7.2153 -2.3622,-3.1893 -5.8405,-3.6851 -3.4719,-0.5396 -6.7616,1.8969 -1.4565,1.0788 -3.5891,3.3973 z m 54.049,-17.8439 0.7789,0.8546 -13.4186,12.2306 -0.7789,-0.8546 1.1086,-1.0104 q 1.94,-1.7683 1.7862,-3.6999 -0.1194,-1.2443 -2.6876,-4.062 l -18.4406,-20.232 q -2.1682,-2.3789 -3.1632,-2.8674 -0.7572,-0.3669 -1.8521,-0.13 -1.5214,0.3719 -2.63,1.3824 l -1.1086,1.0104 -0.779,-0.8545 13.4187,-12.2306 0.7789,0.8545 -1.1316,1.0315 q -1.917,1.7472 -1.7631,3.6789 0.096,1.2653 2.6644,4.083 l 18.4407,20.232 q 2.1682,2.3789 3.1631,2.8674 0.7573,0.3669 1.8752,0.109 1.4984,-0.3509 2.607,-1.3614 z m -10.9736,-49.58 q 5.4723,-6.1738 14.1734,-6.5209 8.6985,-0.3912 15.7142,5.8273 7.2263,6.4051 7.955,15.1939 0.7287,8.7888 -5.0131,15.2667 -5.8039,6.548 -14.4168,6.8898 -8.5922,0.3184 -15.9821,-6.2318 -7.5537,-6.6952 -7.7641,-16.0687 -0.1802,-8.1356 5.3335,-14.3563 z m 1.3133,1.9575 q -3.7725,4.2563 -2.8955,9.627 1.089,6.6863 8.666,13.4022 7.7641,6.8818 14.8936,7.2714 5.44,0.27 9.1503,-3.916 3.9591,-4.4667 3.045,-10.4551 -0.8935,-6.0118 -8.4003,-12.6656 -8.1384,-7.2134 -14.9772,-7.5541 -5.4606,-0.2466 -9.4819,4.2902 z" id="text11"/>
      <path id="path12" style="fill:#535353;stroke-width:6.32791;stroke-linejoin:round;paint-order:stroke fill markers" transform="matrix(0.39507507,0,0,0.39507507,-29.1405,-419.21685)" d="m 2245.0531,332.39474 -69.0482,0.74508 -15.0847,67.38435 -22.0456,-65.43843 -68.7478,6.4765 55.4232,-41.18825 -27.4038,-63.38166 56.2991,39.98269 51.8113,-45.64851 -20.6284,65.89891 z"/>
      <path id="path12-6" style="fill:#535353;stroke-width:6.32791;stroke-linejoin:round;paint-order:stroke fill markers" transform="matrix(-0.39507507,0,0,0.39507507,1053.1405,-419.21685)" d="m 2245.0531,332.39474 -69.0482,0.74508 -15.0847,67.38435 -22.0456,-65.43843 -68.7478,6.4765 55.4232,-41.18825 -27.4038,-63.38166 56.2991,39.98269 51.8113,-45.64851 -20.6284,65.89891 z"/>
      <path style="font-size:58.6667px;line-height:1;font-family:Arial;-inkscape-font-specification:Arial;text-align:center;letter-spacing:0px;text-anchor:middle;white-space:pre;stroke-width:2.5;stroke-linejoin:round;paint-order:stroke fill markers" d="m 819.9576,-362.60283 q -2.3746,-0.26394 -4.5009,-1.33658 -1.1357,-0.5588 -3.546,-2.2686 l 0.3588,-0.4792 q 0.8505,0.18104 1.9715,0.36333 1.1176,0.21073 1.5035,0.25362 3.0869,0.34313 8.6663,0.47305 5.6056,0.16168 11.7103,0.17696 3.6991,0.007 7.5569,-0.054 1.2372,0.71428 2.665,1.59392 1.4242,0.9081 2.6808,1.71103 -3.4388,0.0792 -9.3985,0.10884 -5.9631,0.0581 -10.7307,-0.0681 -5.9391,-0.14106 -8.937,-0.47429 z m -6.3703,-10.81925 1.0702,-14.1138 5.1857,0.3614 -0.8515,11.22819 25.5303,-1.63853 0.8577,-1.43374 q 2.0564,0.14332 3.8186,0.61079 1.7919,0.46954 3.4386,1.27363 l -0.3603,0.40571 q -1.7285,-0.12047 -2.7337,1.67637 -0.7043,1.38698 -1.4109,2.80253 -1.4901,-0.10385 -3.1715,-0.45081 -1.6814,-0.34695 -2.492,-0.71939 l 0.5808,-1.33814 -23.6207,1.74289 z m 1.3183,-12.75177 -0.1275,-33.08573 5.1994,-0.0184 0.09,23.3462 q 2.3493,-2.93021 3.6563,-4.94006 1.6339,-2.49799 2.3729,-4.56312 0.8277,-2.32326 0.8186,-4.70085 -0.01,-1.46093 -0.2206,-2.94977 2.2145,0.8229 3.5643,2.16448 1.9498,1.94103 1.9612,4.92018 0.012,2.92186 -2.9615,6.91418 -1.4864,1.98184 -5.6526,6.46538 -3.2435,3.47765 -3.5078,4.71037 l 0.011,1.71874 z m -6.5102,-14.5005 -4.3414,-2.21902 2.4921,-4.64948 4.3708,2.10433 z m 6.0095,-17.24906 -1.4256,-16.27084 5.181,-0.4172 1.2431,14.18703 q 3.5136,-0.28293 5.2897,-1.23085 1.2329,-0.64547 3.4571,-2.98058 l 5.0486,1.83571 q -2.5296,2.27345 -4.0031,2.90955 -2.2253,0.95535 -7.5254,1.38214 z m -7.4907,-2.32898 -4.5127,-1.87887 2.0961,-4.82575 4.5324,1.76229 z m 6.3224,-12.51785 -1.6328,-10.36688 q -0.6008,1.94109 -2.0252,3.45092 -1.7844,1.90961 -4.1776,2.25602 -2.3046,0.33358 -3.8003,-0.14521 -1.8771,-0.59742 -2.1626,-2.41021 -0.5353,-3.39898 1.4709,-6.58642 2.4193,-3.82665 7.2648,-4.52802 l 2.1363,-0.25127 -0.9859,-6.25979 5.141,-0.74414 1.1286,7.16618 q 2.904,0.59363 5.455,1.44114 3.2207,1.06927 5.3703,2.4384 2.4854,1.58129 2.7486,3.25245 0.1383,0.87807 -1.3546,1.76048 -1.4885,0.91074 -3.2908,1.17162 -2.6,0.37634 -4.4303,-0.69138 -1.0954,-0.62364 -3.6773,-4.16095 l 1.9629,12.46292 z m 8.6577,-10.84242 q 2.8068,-0.40628 2.6285,-1.53927 -0.1919,-1.21797 -3.2369,-2.51545 -1.459,-0.62897 -4.7978,-1.68113 1.1446,2.47064 2.544,4.06426 1.6213,1.85122 2.8622,1.67159 z m -16.4265,3.53649 q 2.3341,-0.33785 3.9735,-3.93573 1.349,-2.94746 1.4113,-5.62177 -3.2501,0.47044 -5.1114,2.2753 -2.2555,2.18058 -1.689,5.77783 0.1072,0.6798 0.4784,1.11855 0.3758,0.46708 0.9372,0.38582 z m 4.0123,-16.21573 -0.9719,-3.98899 q -0.4893,-2.00845 2.7159,-4.34407 2.3984,-1.74312 6.4476,-3.38523 -1.8333,-0.47199 -3.048,-1.55318 -1.2147,-1.0812 -1.5613,-2.50384 -0.7815,-3.20794 -0.8684,-5.45359 -0.051,-2.22427 0.6474,-2.38064 2.5024,-0.56032 6.2898,1.88632 3.8164,2.44012 7.2279,6.61829 0.2192,-0.10792 1.161,-0.52471 0.9485,-0.38889 1.1813,-0.44102 0.9893,-0.22152 2.3678,0.14642 1.1184,0.30848 2.3766,0.93867 -1.7362,0.68291 -3.3558,1.33975 -1.613,0.68474 -3.3218,1.47923 l -4.801,1.95751 q -3.962,1.62256 -5.8047,2.62351 -2.8155,1.54236 -2.5913,2.46289 l 0.9719,3.98899 z m 10.6348,-12.64777 3.0426,-1.24019 q -1.4933,-2.22489 -2.8225,-3.39812 -1.3,-1.17974 -3.1315,-1.76982 -0.1191,0.64443 -0.074,1.45807 0.045,0.81364 0.3778,2.1805 0.4079,1.6737 2.6081,2.76956 z m 22.4332,-2.25793 -4.7221,-1.11949 1.3296,-5.12209 4.7357,1.17529 z m -4.2556,-5.75413 -4.6708,-1.16042 1.352,-5.1565 4.7201,1.23759 z m -33.1623,-22.06684 q -2.2478,0.77981 -4.65,0.72972 -1.2765,-0.0141 -4.2295,-0.51292 l 0.098,-0.58233 q 0.8453,-0.20187 1.9333,-0.51841 1.0983,-0.2896 1.4635,-0.41632 2.9222,-1.01375 7.9756,-3.28472 5.0916,-2.25378 10.5616,-4.85208 3.3137,-1.57606 6.7374,-3.28168 1.4396,0.10984 3.1269,0.28612 1.6973,0.20322 3.1956,0.38411 -3.0405,1.54221 -8.3599,4.11871 -5.3092,2.60343 -9.6344,4.53041 -5.3803,2.41488 -8.2182,3.39939 z m -10.7376,-6.95614 -5.613,-13.08805 4.8087,-1.89533 4.4655,10.41215 22.0836,-12.38983 0.1001,-1.65 q 1.9069,-0.7516 3.7014,-1.08724 1.8222,-0.34653 3.6702,-0.33156 l -0.1336,0.51723 q -1.6028,0.63178 -1.6657,2.66978 0.016,1.54256 0.042,3.11161 -1.3818,0.54464 -3.048,0.95357 -1.6662,0.40893 -2.5651,0.4225 l -0.1032,-1.446 -20.3263,11.66619 z m -4.756,-11.97653 -1.0346,-1.9701 q -0.8601,-1.63749 -1.0245,-3.03343 -0.1377,-1.40883 0.2057,-2.79332 -1.6191,-0.72589 -2.4097,-1.46681 -1.1657,-1.07299 -2.3616,-3.35012 l -0.8735,-1.66308 q -0.6988,-1.33046 -0.8637,-2.91857 -0.11,-1.03738 0.019,-2.70314 -1.6058,-0.76435 -2.517,-1.60743 -0.8845,-0.85597 -2.0939,-3.15869 l -2.5934,-4.93805 4.6439,-2.24151 2.5935,4.93805 q 1.0884,2.07245 1.9324,2.7876 1.3932,1.18768 3.2348,0.29881 0.7739,-0.37359 1.5076,-0.82393 0.7337,-0.45034 1.587,-1.11879 l 2.1523,0.27608 q -2.0791,1.90157 -2.9582,2.90317 -1.5183,1.75915 -1.9952,3.20805 -0.5828,1.75665 0.2772,3.39414 l 0.9003,1.71425 q 1.0079,1.91893 2.1055,2.54372 1.2314,0.6885 2.7526,-0.0458 0.8274,-0.39935 1.5476,-0.87528 0.7203,-0.47593 1.5336,-1.09303 l 2.1657,0.30167 -2.2265,1.74823 q -2.5997,2.12075 -3.2232,3.67253 -0.5574,1.35945 0.222,2.84342 0.3628,0.69082 1.0049,0.89407 0.6822,0.21596 1.3761,-0.11898 1.4945,-0.7214 2.5984,-2.56912 0.1727,-0.30792 1.0763,-2.09105 l 3.7825,0.25891 q -1.1037,1.84772 -2.1032,2.81121 -1.5192,1.43888 -4.5351,2.89457 z m 25.1412,-21.30766 -4.9313,-0.0893 0.1452,-5.2016 4.891,0.0125 z m -2.1034,7.33344 -4.8914,-0.14065 0.1184,-5.25277 4.8243,0.0768 z m -5.4927,-4.72533 -4.8912,-0.0766 0.065,-5.22701 4.8644,0.0254 z m -32.7489,-9.7351 -2.3411,-3.5629 q -1.0353,-1.57543 -1.3187,-3.67267 -0.3387,-2.50393 0.7565,-4.38421 -2.584,-0.70778 -4.7881,-2.28833 -2.7089,-1.91892 -4.8431,-5.16673 l -1.4335,-2.18136 4.3992,-2.65676 1.4334,2.18137 q 1.338,2.03594 2.9398,3.5062 1.8369,1.66682 4.2582,2.87922 l 0.6963,-1.84248 q 0.451,-1.35581 -0.186,-2.32531 -0.2868,-0.43627 -0.6867,-0.66871 -0.3747,-0.24771 -1.2017,-0.32384 l -0.3344,-0.50898 1.4917,-0.90086 q 2.781,-1.67955 4.7414,-0.8998 1.7795,0.71964 3.866,3.89474 1.7998,2.73883 2.1722,4.91775 0.4951,2.84955 -1.5527,4.08632 -1.0872,0.65655 -2.8395,0.46213 -1.2896,-0.13528 -3.9533,-0.96425 -0.352,0.75425 -0.04,2.08923 0.3281,1.35922 0.8219,2.11058 l 2.3413,3.5629 z m -13.3067,-19.94281 -10.0099,-13.21071 4.2067,-2.92934 8.7279,11.51882 q 2.8527,-1.98656 3.8599,-3.67929 0.7059,-1.16427 1.3471,-4.26618 l 5.3104,-0.93637 q -0.9355,3.20073 -1.8524,4.47651 -1.3874,1.92209 -5.6908,4.91876 z m -7.666,1.72695 -4.8754,0.63332 -0.8141,-5.16878 4.8292,-0.74287 z m -1.3855,-13.65454 -10.6932,-12.70907 4.0469,-3.12932 9.3237,11.08142 q 2.7444,-2.12218 3.6611,-3.86154 0.6437,-1.19697 1.1206,-4.32597 l 5.2543,-1.19235 q -0.7657,3.24195 -1.6142,4.56051 -1.2844,1.98682 -5.4243,5.18808 z m -4.7739,3.36028 -4.7607,0.95782 -1.123,-5.16735 4.7982,-0.91322 z m -6.4404,-3.41105 -4.7328,0.89955 -1.1186,-5.20763 4.8125,-0.85065 z m 1.5613,-11.59004 -2.8902,-3.01717 q -1.4553,-1.51914 0.1403,-5.06279 1.1961,-2.64761 3.8822,-5.98455 -1.8389,0.45206 -3.4509,0.0821 -1.612,-0.36991 -2.6427,-1.44597 -2.3243,-2.42639 -3.5504,-4.34166 -1.1839,-1.91354 -0.6557,-2.37855 1.8928,-1.6663 6.4453,-1.31826 4.5745,0.32866 9.6868,2.36201 0.1356,-0.1972 0.7425,-1.00367 0.627,-0.78536 0.8031,-0.94036 0.7482,-0.65877 2.1374,-0.98727 1.1323,-0.25789 2.5512,-0.30134 -1.1624,1.41228 -2.2368,2.74706 -1.0542,1.35587 -2.1358,2.85254 l -3.1792,3.96558 q -2.62,3.2788 -3.7124,5.01833 -1.6624,2.66913 -0.9954,3.3654 l 2.8902,3.01717 z m 2.7843,-16.02447 2.015,-2.51282 q -2.4407,-1.23498 -4.1995,-1.63117 -1.7369,-0.41556 -3.6346,-0.0673 0.2264,0.61747 0.6822,1.30512 0.4559,0.68765 1.4462,1.72151 1.2127,1.26594 3.6907,1.18463 z m 18.3844,-12.529 -4.6868,1.24813 -1.4659,-5.0878 4.7273,-1.20593 z m -6.6549,-3.00866 -4.6631,1.18827 -1.464,-5.12827 4.7457,-1.14435 z m -43.2116,3.53637 -11.1925,-9.22624 3.3898,-3.77932 8.9042,7.3399 13.8246,-20.64129 -0.6912,-1.51419 q 1.3443,-1.49869 2.785,-2.57779 1.4604,-1.10081 3.1146,-1.89063 l 0.1256,0.51907 q -1.13,1.25977 -0.2223,3.10364 0.7432,1.36824 1.5091,2.75515 -0.9741,1.08601 -2.2659,2.17465 -1.2917,1.08864 -2.0864,1.49137 l -0.7758,-1.244 -12.6004,19.23251 z m -9.9078,-8.18858 -13.4187,-10.0561 3.2021,-3.92691 11.7001,8.76822 q 2.1716,-2.66308 2.6534,-4.5563 0.3441,-1.30565 0.069,-4.45686 l 4.8359,-2.30256 q 0.021,3.32397 -0.4946,4.79253 -0.7814,2.21411 -4.0571,6.23129 z m 18.041,-22.40346 -4.4105,1.96689 -2.315,-4.78908 4.4575,-1.93161 z m -7.0791,-1.92358 -4.3972,1.90412 -2.3201,-4.8293 4.4863,-1.87376 z m -23.1079,14.83393 -28.8042,-18.22566 2.8641,-4.15995 20.325,12.86052 q -1.2434,-3.49825 -2.2648,-5.65478 -1.2644,-2.68777 -2.6484,-4.42161 -1.5592,-1.94758 -3.6291,-3.2573 -1.2719,-0.80477 -2.684,-1.45797 1.9414,-1.31156 3.8541,-1.64576 2.7658,-0.48098 5.3595,1.16011 2.5437,1.60954 4.3642,6.19371 0.8977,2.2842 2.4838,8.09294 1.2233,4.5153 2.1476,5.409 l 1.4963,0.94679 z m -27.9124,-17.52804 q -1.5119,2.79792 -5.6278,4.56074 -3.6051,1.56485 -7.8729,1.865 -4.0674,0.30291 -6.0573,-0.68531 -1.8307,-0.90917 -3.6784,-2.47199 -1.4124,-1.18529 -3.2277,-3.11921 -1.5392,-1.63546 -3.052,-3.25774 l 1.0009,-0.79343 q 1.5724,1.2003 3.2775,2.46649 1.7179,1.30479 3.2568,2.06902 3.3962,1.68657 8.2113,1.43236 4.3739,-0.24745 8.3021,-1.97442 3.942,-1.7524 5.2065,-4.09247 1.0858,-2.00941 1.061,-4.82842 -0.02,-2.26802 -0.7801,-5.03306 l 3.6702,-3.24234 q 1.1312,3.01356 1.1213,5.46054 -0.015,2.76722 -1.4715,5.4634 z m -27.2905,-13.21889 -15.6737,-6.39011 2.0347,-4.58682 13.6665,5.57173 q 1.3798,-3.1106 1.335,-5.05889 -0.02,-1.34652 -1.1347,-4.32257 l 4.0509,-3.42242 q 0.9157,3.20603 0.8143,4.75224 -0.1581,2.33249 -2.2396,7.02475 z m -2.5629,5.11859 -3.7305,2.99276 -3.5273,-4.05289 3.7855,-2.97033 z m -7.357,-0.10446 -3.7346,2.92882 -3.5432,-4.09046 3.8288,-2.92155 z m -4.3584,-11.10417 q -1.0533,2.98484 -4.844,5.32377 -3.317,2.06921 -7.4885,2.98429 -3.9728,0.88876 -6.0957,0.20021 -1.953,-0.63346 -4.0259,-1.91061 -1.5829,-0.96704 -3.6824,-2.61571 -1.7795,-1.39365 -3.5306,-2.77812 l 0.8644,-0.92932 q 1.7435,0.95868 3.6287,1.96325 1.9039,1.0409 3.5455,1.57337 3.6231,1.17513 8.3428,0.22617 4.2846,-0.87835 7.8955,-3.15465 3.6205,-2.30343 4.5015,-4.79984 0.7565,-2.14365 0.2877,-4.92669 -0.377,-2.23913 -1.5647,-4.86221 l 3.1168,-3.73688 q 1.5932,2.81507 1.9693,5.23536 0.4219,2.73755 -0.5933,5.61384 z m -47.045,-20.81724 q -0.4672,2.24747 -1.7551,4.19212 -0.6731,1.03975 -2.6465,3.20395 l -0.4691,-0.38171 q 0.2574,-0.79792 0.5379,-1.85427 0.3098,-1.05075 0.3857,-1.41597 0.6074,-2.92171 1.1954,-8.24226 0.6233,-5.34305 1.1348,-11.17478 0.3081,-3.53387 0.5574,-7.22501 0.843,-1.12413 1.8735,-2.41693 1.0598,-1.2872 1.9967,-2.42263 -0.197,3.29222 -0.65,8.98909 -0.4237,5.70246 -0.9421,10.24769 -0.6287,5.66327 -1.2186,8.50071 z m -11.7656,5.20842 -14.5869,-2.16859 0.7969,-4.9255 11.6045,1.72521 0.3692,-24.52714 -1.4209,-0.93596 q 0.316,-1.95322 0.9451,-3.59899 0.6335,-1.67408 1.6032,-3.18225 l 0.3927,0.37723 q -0.2656,1.64184 1.5208,2.7481 1.3849,0.78564 2.7992,1.57567 -0.2289,1.41537 -0.7262,2.99378 -0.4972,1.57841 -0.9503,2.32273 l -1.344,-0.66363 -0.1057,22.71107 z m -13.151,-2.29655 -2.294,-0.17074 q -1.9067,-0.14192 -3.2377,-0.72944 -1.3288,-0.61608 -2.3869,-1.61426 -1.4858,0.9525 -2.5562,1.21761 -1.561,0.40099 -4.2125,0.20364 l -1.9363,-0.14414 q -1.5492,-0.1153 -3.0521,-0.80181 -0.9828,-0.44667 -2.403,-1.41434 -1.5133,0.92172 -2.7374,1.23286 -1.2217,0.28259 -3.9029,0.083 l -5.7497,-0.42796 0.4025,-4.96942 5.7497,0.42796 q 2.4131,0.17961 3.4882,-0.14261 1.7811,-0.52827 1.9407,-2.4989 0.067,-0.82824 0.045,-1.66313 -0.022,-0.83489 -0.1774,-1.88079 l 1.3602,-1.62267 q 0.6214,2.68959 1.0605,3.92902 0.7845,2.15583 1.8309,3.29681 1.2664,1.3872 3.173,1.52912 l 1.9961,0.14856 q 2.2343,0.16631 3.36,-0.41074 1.2518,-0.65386 1.3836,-2.28177 0.072,-0.88536 0.02,-1.72247 -0.052,-0.8371 -0.182,-1.82366 l 1.39,-1.62046 0.4082,2.73119 q 0.5477,3.23002 1.61,4.54458 0.925,1.16066 2.6529,1.28928 0.8044,0.0599 1.318,-0.36161 0.5459,-0.44782 0.606,-1.19038 0.1295,-1.59936 -0.9485,-3.46098 -0.1854,-0.30113 -1.3095,-1.96505 l 2.1886,-2.9689 q 1.0781,1.86163 1.4208,3.18009 0.4981,1.99085 0.2368,5.21812 z m -33.0976,-2.08861 -4.1834,0.005 q -2.0319,0.002 -3.2591,-1.57176 -1.0774,-1.37375 -1.6485,-4.09445 -0.5413,-2.72073 -0.8451,-6.70216 -0.1833,-3.23677 -0.3968,-6.64538 -0.1836,-3.40865 -0.5145,-5.15567 -0.3011,-1.77569 -0.8402,-2.89226 -0.6592,-1.37424 -1.8258,-2.40414 l 3.6683,-5.56154 q 1.1697,3.43616 1.6538,8.21946 0.3026,2.97882 0.6153,14.09305 0.5443,5.09834 1.5621,6.52946 0.8381,1.20216 1.8242,1.20102 l 4.1834,-0.005 z m -14.4985,-7.8e-4 -18.441,0.93173 -0.2736,-4.97747 15.9045,-0.80358 q -0.14,-2.54595 -0.8893,-4.74557 -1.5249,0.5647 -2.3494,0.80716 -1.3537,0.41263 -2.3981,0.46539 -2.1783,0.11006 -3.6091,-0.87901 -1.6476,-1.12155 -1.7719,-3.38144 -0.2185,-3.97625 1.1099,-7.02668 1.4886,-3.40274 4.1742,-3.53843 3.6404,-0.18393 5.9102,5.18034 1.8897,4.43685 2.2247,10.52996 z m -5.6817,-14.62945 q -0.4744,-1.00872 -1.4576,-2.02041 -1.3319,-1.36698 -2.4658,-1.30969 -0.8057,0.0407 -1.3066,0.72578 -0.4726,0.65497 -0.4239,1.54176 0.1258,2.28849 2.7516,2.15582 0.6864,-0.0347 1.4481,-0.33133 0.7617,-0.29666 1.4542,-0.76193 z m 2.8492,-17.84298 -1.9802,4.25946 -5.0257,-2.15566 2.0397,-4.26247 z m -6.6572,3.00412 -2.0131,4.20375 -5.0573,-2.18276 2.1011,-4.23688 z m -7.3271,30.34808 -16.9373,1.7214 -0.5481,-4.9566 14.7682,-1.50094 q -0.3718,-3.36137 -1.3991,-5.04296 -0.7,-1.16753 -3.1838,-3.24841 l 1.8042,-4.87881 q 2.4262,2.3748 3.1216,3.77324 1.0449,2.1119 1.6057,7.18244 z m 0.3563,5.66745 -1.7421,4.35398 -5.1378,-1.89756 1.8016,-4.36002 z m -6.4819,3.33778 -1.7781,4.30003 -5.1707,-1.92303 1.8641,-4.33758 z m -9.3117,-7.54236 -4.2116,0.69185 q -2.1205,0.34834 -4.361,-2.85839 -1.6718,-2.39919 -3.1399,-6.37222 -0.601,1.72627 -1.7993,2.82408 -1.1983,1.09782 -2.7004,1.34456 -3.3869,0.55639 -5.7304,0.5054 -2.3192,-0.0841 -2.4403,-0.76167 -0.4339,-2.42815 2.3397,-5.90639 2.7688,-3.50648 7.323,-6.52155 -0.099,-0.2162 -0.477,-1.1423 -0.3483,-0.93094 -0.3886,-1.15682 -0.1716,-0.95996 0.2938,-2.25708 0.3879,-1.05189 1.1193,-2.21831 0.6074,1.70215 1.1947,3.29136 0.6165,1.58437 1.3418,3.26716 l 1.7516,4.71117 q 1.4529,3.88832 2.3851,5.71149 1.438,2.78639 2.4098,2.62673 l 4.2116,-0.69185 z m -12.5345,-10.93225 -1.1097,-2.98562 q -2.4058,1.29618 -3.7068,2.49805 -1.3061,1.17364 -2.0299,2.89103 0.6639,0.1525 1.5139,0.15821 0.8498,0.006 2.2929,-0.23136 1.7672,-0.29029 3.0396,-2.33031 z m -1.0115,-21.6023 -1.4477,4.452 -5.2541,-1.57823 1.5066,-4.46168 z m -6.2457,3.72888 -1.4872,4.40037 -5.2885,-1.60163 1.5705,-4.44312 z m -24.9578,30.417 q 0.6778,2.19763 0.4822,4.49344 -0.091,1.22064 -0.7866,4.01666 l -0.6005,-0.12852 q -0.1597,-0.821 -0.4243,-1.88112 -0.236,-1.06824 -0.3462,-1.42535 -0.8811,-2.85692 -2.944,-7.82834 -2.0427,-5.00701 -4.4216,-10.3967 -1.4432,-3.26515 -3.0148,-6.64329 0.2003,-1.37113 0.4847,-2.97516 0.3129,-1.61216 0.5907,-3.03513 1.4243,3.00168 3.7894,8.24589 2.3939,5.23609 4.1422,9.49017 2.1931,5.29295 3.0488,8.06745 z m -7.8845,9.86007 -13.9632,4.5899 -1.6865,-4.71491 11.1084,-3.65148 -11.5822,-21.87274 -1.7122,-0.19428 q -0.6688,-1.8697 -0.9111,-3.60703 -0.252,-1.76442 -0.1261,-3.53195 l 0.5306,0.1587 q 0.5622,1.57164 2.6805,1.75352 1.6071,0.0774 3.2425,0.14547 0.4846,1.35485 0.8109,2.97372 0.3263,1.61887 0.2868,2.4798 l -1.5118,0.0124 10.9337,20.1478 z m -12.7533,3.83715 -31.699,13.08484 -2.0562,-4.57803 22.3676,-9.23302 q -3.7329,-0.92299 -6.174,-1.28763 -3.0377,-0.46146 -5.3091,-0.30355 -2.5539,0.18095 -4.8319,1.12124 -1.3996,0.57778 -2.7441,1.35105 -0.078,-2.27551 0.6796,-3.99194 1.0981,-2.48054 3.9524,-3.65875 2.7994,-1.15554 7.7959,-0.0992 2.4846,0.53384 8.4205,2.45 4.6089,1.49705 5.8954,1.2467 l 1.6467,-0.67973 z m -30.4623,12.82414 -2.7239,1.43407 q -1.7548,0.92387 -4.3864,1.3289 -3.044,0.45875 -5.8595,-0.0525 -0.4979,2.58248 -1.6929,4.12666 -1.1831,1.50528 -4.2213,3.10483 l -4.0858,2.1511 -2.5027,-4.3689 4.0072,-2.10974 q 2.3834,-1.25481 3.5813,-3.38884 0.9228,-1.66232 1.1665,-3.91489 0.3318,-3.0507 1.7279,-5.91 1.261,-2.55943 2.7858,-3.88504 3.3174,1.68496 5.5995,3.22873 3.0803,2.10398 4.1016,3.88669 z m -5.8456,-3.36065 q -1.1748,-1.27704 -2.6874,-2.31082 -1.2785,-0.86295 -2.9929,-1.5944 -1.0846,0.96318 -1.4743,2.24681 -0.2741,0.83065 -0.3406,2.49975 1.5038,0.48283 3.6521,0.3649 2.1746,-0.13171 3.7944,-0.75572 z m -16.0587,14.78909 q 1.8385,2.61202 1.4823,6.92015 -0.2928,3.78341 -2.0612,7.51911 -1.6698,3.56833 -3.5276,4.77004 -1.709,1.10558 -4.0249,1.91249 -1.7616,0.6212 -4.4018,1.22328 -2.2347,0.51251 -4.4447,1.009 l -0.2474,-1.22221 q 1.8521,-0.74881 3.8279,-1.57774 2.0174,-0.8212 3.4541,-1.75053 3.1705,-2.05092 5.243,-6.22523 1.8673,-3.79979 2.1665,-7.93282 0.2824,-4.15678 -1.2553,-6.34137 -1.3204,-1.87591 -3.9139,-3.20473 -2.0864,-1.06935 -4.9827,-1.75299 l -1.2123,-4.64137 q 3.3014,0.4908 5.5377,1.67058 2.5272,1.33712 4.2989,3.85415 z m -31.8555,12.41641 q 1.4762,1.80248 2.1786,4.00533 0.3856,1.16659 0.8158,4.01129 l -0.6075,0.0931 q -0.4646,-0.70647 -1.1189,-1.59803 -0.6306,-0.90925 -0.8705,-1.20216 -1.9192,-2.34323 -5.7509,-6.23329 -3.8267,-3.93027 -8.1132,-8.09721 -2.5987,-2.52367 -5.3602,-5.10692 -0.3419,-1.34517 -0.6954,-2.9365 -0.33,-1.60903 -0.6198,-3.02979 2.4796,2.2855 6.6973,6.3221 4.2413,4.01891 7.5043,7.35369 4.0767,4.14274 5.9404,6.41838 z m -10.9136,8.64558 2.198,4.41825 q -2.6283,3.71418 -3.8746,6.58925 -1.441,3.31098 -1.7791,6.9446 l -1.0291,0.22906 q -0.6268,-1.23041 -0.9138,-2.48325 -0.2541,-1.08879 -0.2352,-2.14271 l -3.8984,0.80617 q -1.8131,0.24804 -2.61,-0.606 -0.6374,-0.68323 -1.42,-3.24062 -0.923,-3.05179 -0.8769,-5.66635 0.069,-3.364 1.8725,-4.91091 1.6705,-1.43232 3.6184,-1.45002 0.4242,-0.0179 2.2314,0.20033 l 1.4516,3.79006 q -1.322,0.17283 -1.5776,0.19976 -2.1355,0.33227 -3.0041,1.07708 -1.069,0.91669 -1.6893,2.48624 -0.6202,1.56955 0.057,2.29549 0.8167,0.87539 2.9101,0.54087 1.6244,-0.27841 4.4176,-1.36676 1.7611,-4.08508 4.1514,-7.71054 z m -25.8375,30.9002 q 3.7833,3.03081 5.1832,8.70662 1.5673,6.33254 -1.8433,10.24523 -1.2647,1.45077 -2.9499,2.71393 -1.2294,0.919 -3.4196,2.22552 -1.7728,1.00631 -3.5227,2.031 l -0.4768,-1.01659 q 1.3711,-0.99216 2.8609,-2.07587 1.5318,-1.08731 2.4707,-2.1644 2.3377,-2.68173 3.0045,-6.21655 0.5051,-2.76848 0,-6.34517 -0.2538,-1.80852 -1.1705,-5.49211 -2.5867,2.96748 -4.8564,3.65039 -2.5797,0.77052 -5.1478,-1.28676 -2.3617,-1.89196 -3.4598,-4.5635 -1.2658,-3.10455 0.382,-4.99495 1.667,-1.91238 4.7109,-0.89244 2.3863,0.79167 5.6193,3.38164 z m -3.7064,-0.61734 q -2.6227,-1.27979 -4.0651,-1.27801 -1.2511,0.006 -1.9984,0.86298 -0.5364,0.61548 -0.5032,1.42609 0.029,0.77026 0.6715,1.28458 1.1235,0.90006 2.5628,0.41046 1.4163,-0.50797 3.3324,-2.7061 z m -13.8334,20.80368 q 4.0505,2.69467 5.9737,8.22788 2.1512,6.173 -0.8811,10.36214 -1.1244,1.55327 -2.6851,2.95572 -1.1389,1.02061 -3.1987,2.50949 -1.6719,1.15412 -3.3193,2.32457 l -0.5696,-0.97168 q 1.2731,-1.10562 2.656,-2.31259 1.4245,-1.21417 2.2592,-2.36736 2.0783,-2.8712 2.4131,-6.449 0.2452,-2.80067 -0.59,-6.31992 -0.4212,-1.77955 -1.6776,-5.3699 -2.2998,3.17715 -4.4968,4.05172 -2.4976,0.98838 -5.2472,-0.84073 -2.5285,-1.68213 -3.8711,-4.24894 -1.5501,-2.98373 -0.086,-5.0077 1.4821,-2.04749 4.609,-1.29234 2.4505,0.58414 5.9118,2.88686 z m -3.7492,-0.29745 q -2.7315,-1.05005 -4.1679,-0.92474 -1.2456,0.11283 -1.91,1.03067 -0.477,0.65897 -0.3683,1.46349 0.1012,0.76465 0.7886,1.22193 1.2029,0.80024 2.5908,0.18933 1.3632,-0.62723 3.0668,-2.98068 z m -17.8372,21.04983 q 2.0498,1.17918 3.5256,2.99698 0.7942,0.95803 2.2546,3.46852 l -0.5331,0.29473 q -0.6969,-0.50114 -1.6398,-1.11038 -0.9274,-0.63379 -1.2606,-0.82541 -2.6646,-1.53294 -7.6916,-3.85697 -5.0374,-2.36334 -10.5922,-4.79057 -3.3667,-1.46911 -6.9076,-2.93824 -0.8199,-1.1398 -1.7423,-2.5056 -0.9069,-1.39036 -1.7063,-2.61859 3.1669,1.28734 8.6091,3.61631 5.4575,2.30441 9.7466,4.30415 5.3498,2.47635 7.9376,3.96507 z m 0.9946,12.42406 -6.2307,11.35853 q -0.7927,1.44516 -2.3052,2.17146 -1.4987,0.70093 -2.6888,0.10095 -1.005,-0.50665 -1.7692,-1.02139 -0.7642,-0.51473 -1.5898,-1.28695 l 0.3199,-0.58313 q 1.2373,0.26775 2.1167,-0.22751 0.7305,-0.4085 1.3146,-1.47336 l 5.3823,-9.81194 q -4.734,-2.3866 -8.3121,-2.5722 -4.4591,-0.24134 -7.6659,2.83499 l -4.9221,-2.9669 q 4.6541,-3.25291 10.5746,-2.59846 4.7737,0.52941 11.1739,3.75598 z m -25.2024,14.44756 q 0.8869,0.34269 1.7622,0.86621 0.8475,0.51282 1.2131,0.71588 -1.6381,0.448 -2.906,1.47143 -1.2568,0.99686 -1.8154,2.3253 -0.9718,2.31148 0.755,5.94371 1.5944,3.334 3.1186,3.923 0.5266,0.20347 1.0383,-0.24738 0.4952,-0.48813 1.0872,-1.89627 l 0.8938,-2.12551 q 0.8042,-1.91295 1.2395,-2.79487 0.4187,-0.91919 1.1766,-2.10882 0.7579,-1.18963 2.5594,-0.49353 6.9563,2.68799 8.1405,9.90944 1.0803,6.62542 -2.7513,15.73851 -1.9885,4.72924 -4.9508,6.48777 -3.218,1.90683 -7.4028,0.28975 -2.8824,-1.11375 -5.662,-3.23793 -2.1208,-1.62248 -4.2398,-3.86201 -0.1327,-0.14396 -2.5942,-2.94822 l 0.9404,-0.93383 q 2.4002,2.87325 4.7364,4.82608 2.3197,1.91556 4.3982,2.71874 3.3812,1.30652 6.0101,-0.272 2.6402,-1.60509 4.394,-5.77639 1.3405,-3.18825 1.7863,-7.92672 0.383,-4.05242 0.021,-7.55884 -0.3621,-3.50642 -1.1103,-3.79556 -0.5266,-0.20348 -0.8382,0.0777 -0.3003,0.25457 -0.6131,0.9985 l -2.614,6.21709 q -0.4803,1.14246 -1.7081,1.68724 -1.2277,0.54479 -2.5858,0.02 -1.8568,-0.71751 -4.4296,-3.41034 -2.7941,-2.93277 -4.1726,-6.09068 -1.6597,-3.79164 -0.509,-6.52822 0.7373,-1.75354 2.2703,-2.33479 1.533,-0.58124 3.3622,0.12556 z m 23.1646,20.68746 3.1919,3.51891 -4.16,3.45771 -3.1695,-3.57205 z m 0.03,7.05363 3.1254,3.52406 -4.1989,3.47357 -3.1196,-3.61448 z m -35.7023,28.31637 q 2.323,0.54062 4.2964,1.85473 1.0558,0.68787 3.2296,2.66766 l -0.4172,0.4335 q -0.821,-0.27949 -1.9103,-0.59196 -1.0824,-0.3403 -1.4598,-0.42815 -3.0199,-0.70281 -8.5407,-1.48651 -5.5429,-0.8183 -11.5997,-1.54986 -3.6703,-0.44148 -7.5069,-0.83324 -1.1367,-0.85409 -2.4415,-1.89466 -1.2976,-1.06842 -2.4421,-2.01278 3.4231,0.32499 9.3416,0.99492 5.9258,0.6421 10.6414,1.32686 5.8764,0.83696 8.8092,1.51949 z m 4.9409,11.48547 -2.8644,13.88205 -5.1005,-0.96724 2.2789,-11.04382 -25.5476,-1.36984 -1.0344,1.3223 q -2.0225,-0.38356 -3.7117,-1.05431 -1.7185,-0.6763 -3.2502,-1.66759 l 0.4094,-0.36037 q 1.7002,0.32241 2.9272,-1.34297 0.8761,-1.29388 1.7582,-2.61587 1.4655,0.27794 3.09,0.8196 1.6246,0.54167 2.3814,1.00643 l -0.7472,1.25992 23.6656,1.04217 z m -2.6522,12.36772 -1.8539,12.70967 q -0.236,1.61708 -1.4029,2.79117 -1.1628,1.14572 -2.4944,0.96719 -1.1246,-0.15075 -2.0255,-0.38722 -0.9008,-0.23646 -1.9502,-0.69532 l 0.095,-0.6525 q 1.2589,-0.14941 1.9116,-0.90073 0.5432,-0.62136 0.717,-1.81289 l 1.6016,-10.97912 q -5.2972,-0.71014 -8.7298,0.27592 -4.2812,1.21938 -6.213,5.15448 l -5.679,-1.1952 q 3.2314,-4.57076 9.0337,-5.87547 4.679,-1.05036 11.8405,-0.0903 z m -35.8982,2.8525 3.9683,2.78809 -3.1563,4.26266 -4.0143,-2.67858 z m 27.5561,20.98595 q 1.7302,0.0953 3.7865,1.24162 2.2302,1.24192 2.1633,2.35727 -0.07,1.17254 -1.8137,4.29011 -1.6085,2.86675 -3.1025,4.82164 1.7701,3.42594 2.2459,4.9729 0.6011,1.95556 0.445,4.55804 l -0.1543,2.57388 -5.1907,-0.28604 0.1543,-2.57388 q 0.07,-1.17254 -0.044,-2.26916 -0.1436,-1.09825 -0.5393,-2.98511 -0.6113,0.71233 -1.2525,1.42302 -0.7938,0.75966 -1.5098,0.72021 -0.5072,-0.0279 -0.7441,-0.0697 -0.2352,-0.0703 -0.871,-0.44969 l -4.9911,-3.11566 q -1.0099,-0.62951 -1.3702,-1.10846 -0.3885,-0.50919 -0.5774,-1.3517 -1.5205,1.89604 -2.1171,1.86316 -0.5966,-0.0329 -2.9973,-1.42766 -0.8095,-0.47501 -2.397,-1.45198 1.9294,-1.73004 5.5562,-4.31341 4.5664,-3.27763 8.1189,-5.11908 4.6956,-2.4384 7.2014,-2.30032 z m -7.0772,9.71 q -1.2827,-0.0707 -2.0594,0.40299 -0.931,0.55126 -1.0099,1.86679 -0.079,1.31554 0.7774,2.51045 0.8263,1.19326 2.109,1.26395 1.2232,0.0674 3.4312,-3.3115 -0.7616,-1.27577 -1.5013,-1.91908 -0.852,-0.76428 -1.747,-0.8136 z m 7.2448,-6.51582 q -1.0442,-0.0575 -3.3477,1.42234 -1.4621,0.92369 -3.1307,2.29509 1.4618,0.0805 2.7085,0.75181 1.2187,0.64102 1.8414,1.73698 1.0276,-1.66496 2.0272,-3.36016 0.742,-1.39377 0.778,-1.99434 0.021,-0.34318 -0.2342,-0.58677 -0.2547,-0.24358 -0.6425,-0.26495 z m 3.0411,20.67258 1.7953,27.27389 q 0.3613,5.48908 -1.4222,8.8691 -2.2359,4.23977 -7.5741,4.56269 -2.7733,0.16778 -5.7451,-0.85796 -1.072,-0.36569 -4.1018,-1.81847 l 0.5102,-0.89194 q 1.4132,0.54597 2.8245,1.06335 2.1719,0.70099 3.8419,0.59996 3.519,-0.21288 5.2241,-3.87518 1.5208,-3.27801 1.2008,-8.13814 l -1.594,-24.21486 -0.8051,0.0487 q -3.34,0.20206 -5.3767,1.10025 -2.0665,0.89999 -3.4353,2.84848 l -5.0059,-1.90729 q 1.5574,-1.35714 1.958,-1.6397 3.2121,-2.14611 9.5939,-2.53218 z m 8.3269,15.97169 4.4709,1.96835 -2.2001,4.78296 -4.4933,-1.8522 z" id="text3"/>
      <path id="path4" style="opacity:1;fill:#000000;stroke:none;stroke-width:2.5;stroke-linejoin:round;paint-order:stroke fill markers" d="m 593.61882,-591.2501 -1.38054,1.66416 -4.26562,0.66602 -0.64649,5.2539 -2.67969,3.23047 -0.29846,3.6254 -17.79577,19.24174 -0.70026,3.64173 -11.73285,15.27629 -5.37305,2.72851 -37.5332,46.7793 -6.0293,3.375 -13.50781,17.2461 0.48242,6.51171 -8.80273,11.2168 -2.5332,0.60352 -7.83985,8.19922 1.32813,4.82421 -16.04102,20.38086 -2.47265,-0.60351 -7.56549,11.24598 -2.80366,-0.0292 -4.34179,6.21094 4.28125,8.01953 -4.36524,5.50782 -4.90429,18.93164 -10.18946,6.99218 -38.54021,59.73008 37.20818,22.14688 21.07227,-71.64453 8.1875,-5.79883 -2.04688,-15.17774 6.61328,-9.38086 c 1.1635,0.56083 2.43051,1.07375 3.70508,1.42579 1.3706,0.37855 2.7466,0.57619 4.00977,0.42773 1.26317,-0.14846 2.42786,-0.66679 3.24609,-1.69531 1.67572,-2.1064 3.45644,-4.19476 4.70703,-6.67188 0.52808,-1.046 0.58718,-2.13845 0.3086,-3.17773 -0.27859,-1.03929 -0.87292,-2.03338 -1.63477,-3.00977 -0.86299,-1.106 -1.95179,-2.19191 -3.08398,-3.26758 l 45.63916,-67.37307 69.34716,-95.7363 v -5.45703 l 3.92383,-5.21094 v -6.38672 l 8.7123,-11.97986 a 1.2832624,1.2832624 78.018373 0 0 -0.396,-1.86598 l -1.6149,-0.93275 a 1.3016934,1.3016934 169.84429 0 0 -1.65289,0.29608 z m -124.54851,195.48252 c 1.08301,1.02787 2.1058,2.04855 2.88477,3.04688 0.7129,0.91365 1.23008,1.80765 1.45703,2.65429 0.22695,0.84665 0.18524,1.63565 -0.23438,2.4668 -0.72313,1.43239 -1.65274,2.75389 -2.65234,4.05078 l -7.2168,-4.04687 z m -6.33984,8.99414 7.17187,4.02149 c -0.43574,0.54976 -0.87928,1.09796 -1.32031,1.65234 -0.63644,0.80001 -1.50779,1.19796 -2.58203,1.32422 -1.07424,0.12626 -2.33778,-0.0424 -3.62695,-0.39844 -1.15639,-0.31939 -2.31064,-0.78607 -3.37891,-1.30078 z"/>
      <path id="path10" style="opacity:1;fill:url(#linearGradient30);stroke:none;stroke-width:1;stroke-linejoin:round;stroke-dasharray:none;paint-order:stroke fill markers" d="m 410.59961,-585.57031 c -5.35829,-0.0403 -10.50634,0.68424 -15.16016,2.36133 0,0 17.96878,14.78575 40.8711,24.86914 7.02033,3.09089 4.88593,5.55588 18.70312,5.52148 4.70299,-0.0117 6.3819,-1.96744 9,-3.16211 1.52241,-0.69469 4.86914,-1.17969 4.86914,-1.17969 -7.90616,-13.69387 -35.06394,-28.23574 -58.2832,-28.41015 z m 43.57617,3.51562 23.02539,26.51953 c 6.67057,1.86346 13.28199,5.02628 21.71289,10.73047 -13.49274,-27.16726 -28.71704,-33.26122 -44.73828,-37.25 z m 37.52149,17.90821 c 6.24306,9.18259 12.48302,18.3891 18.5039,30.01562 6.61367,4.25962 13.03393,8.55227 20.08399,15.64844 -5.59123,-21.25408 -21.62293,-39.34388 -38.58789,-45.66406 z m -16.42188,13.01562 c -14.96081,0 -19.14648,9.19531 -19.14648,9.19531 0,0 12.47138,8.35157 19.6289,8.35157 7.38661,0 8.79009,-2.80013 13.28516,-4.54297 3.38792,-1.31356 6.91406,-2.45117 6.91406,-2.45117 0,0 -9.57223,-10.55274 -20.68164,-10.55274 z m 54.36914,17.25586 c 0,0 5.55261,20.98376 10.91602,30.27344 2.39968,4.15638 18.24804,23.19531 18.24804,23.19531 -2.01193,-23.6909 -11.91674,-41.37493 -29.16406,-53.46875 z m -29.18555,1.36133 c -7.26291,0.0385 -16.17968,2.64648 -16.17968,2.64648 0,0 8.29727,9.44387 14.43359,12.1836 8.4742,3.78352 28.16309,3.49639 29.65234,3.59179 0,0 -13.35706,-14.76078 -22.42773,-17.73632 -1.54213,-0.50589 -3.4449,-0.69634 -5.47852,-0.68555 z m 15.40821,24.60937 c -2.12104,-0.009 -3.44727,0.12305 -3.44727,0.12305 0,0 11.77025,15.20623 18.73828,19.10352 9.46146,5.29187 25.4336,12.10742 25.4336,12.10742 0,0 -10.13946,-19.45757 -20.89258,-26.34961 -6.65875,-4.26783 -15.16576,-4.96553 -19.83203,-4.98438 z m 45.39843,12.67774 5.99024,32.10547 c 6.74639,7.29961 9.20096,16.40657 12.6875,25.66211 3.58739,-27.97455 -6.3227,-44.61276 -18.67774,-57.76758 z m -19.23437,18.34179 c -0.22245,-7.3e-4 -0.44497,0.005 -0.66602,0.0176 -0.9873,0.0584 -1.57238,1.04034 -1.26171,1.98047 1.11095,3.36189 4.19749,10.98901 10.77539,16.82227 8.68921,7.70556 24.81445,19.86914 24.81445,19.86914 -2.98767,-11.53995 -19.64783,-38.64332 -33.66211,-38.68946 z m 44.33984,21.91993 c -2.429,10.69836 -1.60454,22.04611 -1.81836,33.1875 4.881,7.04263 6.64383,16.58847 9.39649,25.60742 0,0 5.56055,-9.62598 5.56055,-22.92188 0,-8.33346 -13.13868,-35.87304 -13.13868,-35.87304 z m -25.97461,14.82812 c -0.63565,0.001 -0.99023,0.0645 -0.99023,0.0645 0,0 4.52337,13.54093 8.40234,19.72461 3.39688,5.41515 8.79287,10.44636 12.96094,15.29297 2.50971,2.91827 7.45899,8.81446 7.45899,8.81446 0,0 2.60132,-8.69627 -9.80664,-30.1875 -7.2465,-12.55129 -15.27089,-13.71425 -18.0254,-13.70899 z m 42.22852,33.48242 -8.19922,24.90235 c 3.64793,9.8721 3.80207,19.44739 3.73828,29.0039 0,0 8.73631,-9.86448 10.25,-19.53711 2.29678,-14.67672 -5.78906,-34.36914 -5.78906,-34.36914 z m -29.87305,0.26563 c -2.21665,24.16804 12.60953,36.35423 20.93555,52.87109 0,0 1.00864,-18.58689 -5.20312,-33.25781 -3.2229,-7.61184 -15.73243,-19.61328 -15.73243,-19.61328 z m 4.54102,37.60742 v 19.10156 c 2.69773,11.39845 7.14274,22.79687 11.61914,34.19531 0,0 4.18156,-21.7721 2.55664,-28.14062 -1.55005,-6.07509 -7.75307,-20.04365 -14.17578,-25.15625 z m 32.81055,10.66797 -13.68946,19.95703 c -0.0983,9.88226 -2.41244,18.4359 -3.97851,27.4375 5.84628,-3.388 12.19129,-8.65648 17.24414,-15.37695 1.3242,-11.24063 2.13054,-22.53169 0.42383,-32.01758 z m -35.45704,21.52539 c -5.16333,9.69204 -7.60759,37.86564 1.56836,53.42578 0,0 8.32032,-13.73773 8.32032,-25.56836 0,-12.9899 -9.88868,-27.85742 -9.88868,-27.85742 z m 32.59961,22.63867 c -4.77551,5.52695 -11.08225,8.72864 -17.84375,12.02344 0.76379,2.85049 -6.66246,20.45201 -10.52343,22.42773 20.54714,0 29.27652,-12.83047 28.36718,-34.45117 z"/>
    </g>
  </g>
</svg>